<svg width="100" height="100" viewBox="0 0 100 100" fill="none" xmlns="http://www.w3.org/2000/svg">
<path d="M49.9833 1.70613e-08C42.89 -0.000185306 35.8779 1.50938 29.4131 4.42838C22.9482 7.34737 17.1787 11.6089 12.4879 16.9298C7.79717 22.2507 4.29265 28.509 2.20729 35.2889C0.121919 42.0687 -0.496533 49.2147 0.393037 56.252L0.466783 56.8502H38.356V49.3199H7.53823C7.67129 40.9793 10.2576 32.8625 14.9745 25.9825C19.6914 19.1025 26.3299 13.7639 34.0617 10.6328C41.7934 7.50183 50.2761 6.71706 58.451 8.37647C66.626 10.0359 74.1312 14.066 80.0303 19.9639C85.9293 25.8618 89.9608 33.3663 91.6218 41.5409C93.2827 49.7156 92.4996 58.1983 89.37 65.9307C86.2405 73.6631 80.9031 80.3026 74.024 85.0208C67.1449 89.739 59.0286 92.3268 50.688 92.4615V32.1944H67.8054V49.3199H55.5143V56.8502H75.3848V24.6558H43.1495V99.5411L43.7477 99.6149C45.8171 99.859 47.8995 99.9767 49.9833 99.9672C63.2398 99.9672 75.9533 94.7011 85.3271 85.3274C94.7008 75.9536 99.9669 63.2401 99.9669 49.9836C99.9669 36.7271 94.7008 24.0136 85.3271 14.6399C75.9533 5.26611 63.2398 1.70613e-08 49.9833 1.70613e-08V1.70613e-08Z" fill="#89F4ED"/>
</svg>
