<svg width="75" height="75" viewBox="0 0 75 75" fill="none" xmlns="http://www.w3.org/2000/svg">
<path d="M37.487 1.2796e-08C32.167 -0.000138979 26.9079 1.13204 22.0593 3.32128C17.2106 5.51053 12.8835 8.7067 9.36542 12.6974C5.84736 16.688 3.21897 21.3818 1.65495 26.4667C0.0909201 31.5515 -0.372919 36.9111 0.294259 42.189L0.349569 42.6377H28.7665V36.9899H5.65316C5.75295 30.7345 7.6927 24.6469 11.2304 19.4869C14.768 14.3269 19.7469 10.3229 25.5457 7.97463C31.3446 5.62637 37.7065 5.03779 43.8377 6.28235C49.969 7.52691 55.5979 10.5495 60.0222 14.9729C64.4464 19.3963 67.4701 25.0247 68.7158 31.1557C69.9615 37.2867 69.3742 43.6488 67.027 49.448C64.6798 55.2473 60.6768 60.227 55.5175 63.7656C50.3581 67.3042 44.2709 69.2451 38.0155 69.3461V24.1458H50.8535V36.9899H41.6352V42.6377H56.5381V18.4919H32.3616V74.6558L32.8102 74.7112C34.3623 74.8943 35.9241 74.9825 37.487 74.9754C47.4293 74.9754 56.9645 71.0258 63.9948 63.9955C71.0251 56.9652 74.9747 47.4301 74.9747 37.4877C74.9747 27.5453 71.0251 18.0102 63.9948 10.9799C56.9645 3.94959 47.4293 1.2796e-08 37.487 1.2796e-08V1.2796e-08Z" fill="#89F4ED"/>
</svg>
