<svg width="75" height="75" viewBox="0 0 75 75" fill="none" xmlns="http://www.w3.org/2000/svg">
<circle cx="37.5" cy="37.5" r="37.5" fill="#89F4ED"/>
<g clip-path="url(#clip0)">
<path d="M31.6471 20.8331C31.0856 20.7526 31.0588 20.7257 31.3262 20.6989C31.8342 20.6184 33.0107 20.7257 33.8396 20.9136C35.7647 21.3697 37.5027 22.5503 39.3476 24.6164L39.8289 25.1798L40.5241 25.0725C43.492 24.5895 46.5401 24.9652 49.0802 26.1458C49.7754 26.4678 50.8717 27.1117 51.0054 27.2727C51.0588 27.3264 51.1391 27.6752 51.1925 28.024C51.3797 29.2851 51.2995 30.2242 50.8984 30.9487C50.6845 31.3511 50.6845 31.4585 50.8182 31.8073C50.9252 32.0756 51.246 32.2634 51.5401 32.2634C52.1818 32.2634 52.8503 31.2438 53.1711 29.8217L53.3048 29.2583L53.5455 29.5266C54.9091 31.056 55.9786 33.1757 56.1391 34.6783L56.1925 35.0808L55.9519 34.7319C55.5508 34.1148 55.1765 33.7123 54.6685 33.3635C53.7594 32.7464 52.7968 32.5586 50.2567 32.4244C47.9572 32.2903 46.6471 32.1024 45.3637 31.6731C43.1711 30.9487 42.0481 30.0095 39.4546 26.5482C38.3048 25.0188 37.5829 24.187 36.861 23.4894C35.2834 21.96 33.7059 21.1551 31.6471 20.8331Z" fill="#1D2C49"/>
<path d="M51.5672 24.2405C51.6207 23.2209 51.7544 22.5501 52.0485 21.9329C52.1555 21.6915 52.2624 21.4768 52.2892 21.4768C52.3159 21.4768 52.2624 21.6646 52.1822 21.8793C51.9683 22.4696 51.9416 23.3014 52.0753 24.2405C52.2624 25.4479 52.3426 25.6089 53.6261 26.9237C54.2143 27.5408 54.9095 28.3189 55.1769 28.6409L55.6314 29.2312L55.1769 28.8019C54.6154 28.2652 53.3319 27.2456 53.0378 27.1115C52.8507 27.0042 52.8239 27.0042 52.6902 27.1383C52.5833 27.2456 52.5565 27.4066 52.5565 28.1848C52.5298 29.3922 52.3694 30.1435 51.9683 30.9216C51.7544 31.3241 51.7277 31.2436 51.9148 30.7874C52.0485 30.4386 52.0753 30.2776 52.0753 29.1239C52.0753 26.7895 51.8079 26.226 50.1769 25.2869C49.7758 25.0454 49.0806 24.6966 48.6795 24.5088C48.2517 24.321 47.9309 24.16 47.9576 24.16C48.0111 24.1063 49.5886 24.5625 50.2036 24.8308C51.1394 25.2064 51.2999 25.2333 51.4068 25.2064C51.487 25.1259 51.5405 24.9113 51.5672 24.2405Z" fill="#1D2C49"/>
<path d="M32.7431 28.2386C31.6201 26.6823 30.8982 24.2674 31.0586 22.4697L31.1121 21.9062L31.3795 21.9599C31.8608 22.0404 32.6896 22.3624 33.0907 22.6039C34.1602 23.2478 34.6415 24.1333 35.0961 26.3335C35.2298 26.9775 35.4169 27.7287 35.4971 27.9702C35.6308 28.3727 36.1388 29.3118 36.5667 29.9021C36.8608 30.3314 36.6736 30.5461 36.0052 30.4924C34.9891 30.3851 33.6255 29.446 32.7431 28.2386Z" fill="#1D2C49"/>
<path d="M50.2036 39.9102C44.9095 37.7637 43.0378 35.9123 43.0378 32.7729C43.0378 32.3168 43.0646 31.9412 43.0646 31.9412C43.0913 31.9412 43.2785 32.1022 43.5191 32.29C44.5886 33.1486 45.7919 33.5242 49.1341 34.0072C51.086 34.3024 52.209 34.517 53.225 34.8658C56.4603 35.9391 58.4657 38.1393 58.9469 41.1176C59.0806 41.9762 59.0004 43.613 58.7865 44.4716C58.5994 45.1424 58.0646 46.3767 57.9309 46.4035C57.9042 46.4035 57.8507 46.2693 57.8507 46.0547C57.7972 44.9277 57.2357 43.8545 56.2999 43.0227C55.1769 42.0567 53.733 41.3323 50.2036 39.9102Z" fill="#1D2C49"/>
<path d="M46.4601 40.7958C46.4066 40.3933 46.2729 39.8835 46.1927 39.6688L46.059 39.2664L46.2997 39.5615C46.6473 39.964 46.9146 40.447 47.1553 41.1177C47.3424 41.6276 47.3424 41.7885 47.3424 42.6203C47.3424 43.4253 47.3157 43.6131 47.1553 44.0692C46.8879 44.7937 46.567 45.3035 46.0323 45.867C45.0697 46.8598 43.813 47.3964 42.0216 47.6379C41.7007 47.6647 40.7916 47.7452 39.9895 47.7989C37.9842 47.9062 36.6473 48.1208 35.444 48.5502C35.2836 48.6038 35.1232 48.6575 35.0965 48.6307C35.043 48.577 35.8719 48.094 36.5403 47.772C37.4761 47.3159 38.4387 47.0744 40.551 46.6988C41.5938 46.5378 42.6633 46.3231 42.9307 46.2158C45.5777 45.384 46.8879 43.318 46.4601 40.7958Z" fill="#1D2C49"/>
<path d="M48.8934 45.1156C48.1982 43.5861 48.0378 42.1372 48.4121 40.7688C48.4656 40.6346 48.5191 40.5005 48.5725 40.5005C48.626 40.5005 48.7864 40.581 48.9469 40.6883C49.2677 40.903 49.9362 41.2786 51.6474 42.2177C53.8132 43.3983 55.0431 44.3106 55.8987 45.357C56.6474 46.2693 57.1019 47.3158 57.3158 48.6037C57.4495 49.3281 57.3693 51.0722 57.1822 51.7967C56.5939 54.0774 55.257 55.9019 53.3051 56.9484C53.011 57.1094 52.7704 57.2167 52.7436 57.2167C52.7169 57.2167 52.8239 56.9484 52.9843 56.6264C53.626 55.258 53.7062 53.9432 53.2249 52.4675C52.9308 51.5552 52.3158 50.4551 51.0859 48.6037C49.6153 46.4571 49.2677 45.8937 48.8934 45.1156Z" fill="#1D2C49"/>
<path d="M28.9731 53.326C30.9517 51.6624 33.3849 50.4818 35.6309 50.1062C36.5934 49.9452 38.1977 49.9989 39.0801 50.2403C40.4972 50.616 41.7806 51.4209 42.4491 52.4137C43.0908 53.3797 43.3849 54.2114 43.679 56.0628C43.786 56.7873 43.9196 57.5386 43.9464 57.6996C44.1603 58.6655 44.5881 59.4168 45.1229 59.8193C45.9517 60.4364 47.3956 60.4632 48.8127 59.9266C49.0533 59.8461 49.2672 59.7656 49.2672 59.7925C49.3207 59.8461 48.5988 60.3291 48.1175 60.5706C47.4491 60.9194 46.9143 61.0267 46.1924 61.0267C44.909 61.0267 43.8127 60.3559 42.9303 59.0143C42.7432 58.746 42.3688 57.9679 42.048 57.2434C41.1122 55.0701 40.6309 54.4261 39.5346 53.7016C38.5721 53.0845 37.3421 52.9504 36.4063 53.4065C35.1763 53.9968 34.8555 55.5799 35.7111 56.5458C36.0587 56.9483 36.7004 57.2703 37.2352 57.3508C38.2245 57.4849 39.0801 56.7068 39.0801 55.714C39.0801 55.0701 38.8394 54.6944 38.1977 54.3993C37.3421 54.0236 36.4063 54.4529 36.433 55.2847C36.433 55.6335 36.5934 55.8482 36.941 56.0092C37.1549 56.1165 37.1549 56.1165 36.9945 56.0897C36.2191 55.9287 36.0319 54.9627 36.6469 54.3456C37.3956 53.5943 38.9731 53.9163 39.5079 54.9627C39.7218 55.392 39.7485 56.2507 39.5614 56.7873C39.1068 57.9679 37.8234 58.585 36.5132 58.2362C35.6309 57.9947 35.2565 57.7532 34.187 56.6531C32.3154 54.7213 31.5934 54.3456 28.9196 53.9431L28.4116 53.8626L28.9731 53.326Z" fill="#1D2C49"/>
<path fill-rule="evenodd" clip-rule="evenodd" d="M14.9078 10.1538C21.1378 17.7472 30.7367 29.5532 31.218 30.1971C31.6191 30.7337 31.4586 31.2436 30.7902 31.6192C30.4159 31.8339 29.6405 32.0485 29.2661 32.0485C28.8383 32.0485 28.3303 31.8339 27.9827 31.485C27.7421 31.2436 26.6993 29.7141 24.3463 26.0382C22.5549 23.2208 21.0308 20.8865 21.0041 20.8597C20.8971 20.806 20.8971 20.806 24.1592 26.6553C26.218 30.3313 26.8864 31.646 26.8864 31.807C26.8864 32.1558 26.7795 32.3437 26.3517 32.8266C25.6298 33.6316 25.3089 34.5439 25.0683 36.4489C24.8009 38.5686 24.079 40.0712 22.0201 42.6202C20.8169 44.1228 20.6298 44.3911 20.3356 45.0083C19.9613 45.7595 19.8544 46.1889 19.8009 47.1548C19.7474 48.1744 19.8544 48.8184 20.1485 49.7843C20.4159 50.6429 20.71 51.2064 21.4319 52.3065C22.0469 53.2724 22.4212 53.9969 22.4212 54.2652C22.4212 54.4799 22.4747 54.4799 23.4373 54.2652C25.7367 53.7286 27.6351 52.8163 28.6779 51.6894C29.3196 50.9917 29.48 50.6161 29.48 49.6502C29.48 49.033 29.4533 48.8989 29.2929 48.5232C29.0255 47.9329 28.5175 47.45 27.4212 46.6987C25.9774 45.7059 25.3624 44.9009 25.202 43.8277C25.0683 42.9154 25.2287 42.2982 26.0308 40.6078C26.8597 38.8638 27.0736 38.1393 27.2073 36.3684C27.2875 35.2415 27.4212 34.7853 27.7421 34.4365C28.0897 34.0609 28.3838 33.9267 29.2127 33.8194C30.5763 33.6316 31.4586 33.2828 32.1538 32.612C32.7688 32.0485 33.0362 31.485 33.0629 30.6533L33.0897 30.0361L32.7421 29.6605C31.4854 28.2116 14.079 9 13.9987 9C13.972 9 14.3998 9.5098 14.9078 10.1538ZM23.1164 48.3086C23.4105 47.7988 23.2501 47.1548 22.7688 46.8328C22.3143 46.5377 21.6191 46.6718 21.6191 47.0743C21.6191 47.1816 21.6725 47.289 21.833 47.3426C22.0736 47.4768 22.1004 47.6109 21.9132 47.9061C21.726 48.2012 21.726 48.4696 21.9667 48.6574C22.341 48.9525 22.849 48.7915 23.1164 48.3086Z" fill="#1D2C49"/>
<path fill-rule="evenodd" clip-rule="evenodd" d="M33.9466 34.195C33.3049 34.3828 32.6899 35.0804 32.5028 35.7781C32.3958 36.2074 32.4493 36.9855 32.6364 37.227C32.9306 37.6026 33.1979 37.7099 33.9466 37.7099C35.4172 37.7099 36.6739 37.066 36.8076 36.2879C36.9413 35.6439 36.3798 34.7585 35.6044 34.356C35.2033 34.1413 34.3744 34.0608 33.9466 34.195ZM35.6578 35.5366C35.8717 35.2146 35.7915 34.8658 35.3905 34.6243C34.6685 34.1682 33.5723 34.5438 33.5723 35.2414C33.5723 35.5902 34.1338 35.9659 34.6685 35.9659C35.0161 35.9659 35.4974 35.7512 35.6578 35.5366Z" fill="#1D2C49"/>
</g>
<defs>
<clipPath id="clip0">
<rect width="45" height="52" fill="white" transform="translate(14 9)"/>
</clipPath>
</defs>
</svg>
