<svg width="75" height="75" viewBox="0 0 75 75" fill="none" xmlns="http://www.w3.org/2000/svg">
<circle cx="37.5" cy="37.5" r="37.5" fill="#89F4ED"/>
<path d="M38 56C24.1917 56 13 52.15 13 46.9917C13 44.3 16.0484 41.875 20.9275 40.1667C24.7358 42.525 31.1261 43.7333 38.3713 43.7333C45.4439 43.7333 51.696 42.2583 55.5389 40C60.1416 41.6917 63 44.05 63 46.65C63 51.8167 51.8083 56 38 56Z" fill="#1D2C49"/>
<path d="M38 42C27.5089 42 19 38.7001 19 34.6273C19 32.3694 21.6228 30.346 25.7344 29C28.6688 30.5371 33.0661 31.5184 38 31.5184C42.9339 31.5184 47.3312 30.5371 50.2656 29C54.3859 30.3547 57 32.3694 57 34.6273C57.0087 38.7001 48.4998 42 38 42Z" fill="#1D2C49"/>
<path d="M38 30C29.7177 30 23 27.3086 23 24C23 20.6914 29.7177 18 38 18C46.2823 18 53 20.6914 53 24C53 27.3086 46.2823 30 38 30Z" fill="#1D2C49"/>
</svg>
